<?xml version="1.0" encoding="UTF-8" standalone="no"?>
<!-- Created with Inkscape (http://www.inkscape.org/) -->

<svg
   width="64"
   height="64"
   viewBox="0 0 16.933333 16.933333"
   version="1.1"
   id="svg1"
   xml:space="preserve"
   inkscape:version="1.3 (0e150ed6c4, 2023-07-21)"
   sodipodi:docname="logo_2.svg"
   inkscape:export-filename="..\..\logo_2.pdf"
   inkscape:export-xdpi="96"
   inkscape:export-ydpi="96"
   xmlns:inkscape="http://www.inkscape.org/namespaces/inkscape"
   xmlns:sodipodi="http://sodipodi.sourceforge.net/DTD/sodipodi-0.dtd"
   xmlns="http://www.w3.org/2000/svg"
   xmlns:svg="http://www.w3.org/2000/svg"><sodipodi:namedview
     id="namedview1"
     pagecolor="#ffffff"
     bordercolor="#000000"
     borderopacity="0.25"
     inkscape:showpageshadow="2"
     inkscape:pageopacity="0.0"
     inkscape:pagecheckerboard="0"
     inkscape:deskcolor="#d1d1d1"
     inkscape:document-units="mm"
     inkscape:zoom="5.8511223"
     inkscape:cx="-1.7945275"
     inkscape:cy="16.321655"
     inkscape:window-width="2560"
     inkscape:window-height="1017"
     inkscape:window-x="1912"
     inkscape:window-y="-8"
     inkscape:window-maximized="1"
     inkscape:current-layer="g4" /><defs
     id="defs1" /><g
     inkscape:label="Layer 1"
     inkscape:groupmode="layer"
     id="layer1"><g
       transform="matrix(0.00192575,0,0,-0.00192575,0.11895768,16.94003)"
       fill="#000000"
       stroke="none"
       id="g4"><path
         style="fill:#03708a;fill-opacity:1;stroke:none;stroke-width:0.0909227;stroke-dasharray:none;stroke-opacity:1"
         d="m 342.11511,354.90057 c -8.43865,-3.84746 -33.6121,-18.40772 -34.67879,-18.32975 -2.26125,0.16528 5.61371,-5.67804 10.27873,-7.95555 4.65059,-2.27047 13.79846,-5.06013 19.59008,-8.85794 5.79162,-3.79782 11.43593,-9.75484 12.97432,-9.26465 l 4.06774,0.28954 0.20389,2.84713 c 0.21695,3.02949 0.45898,30.08029 -0.44581,34.92778 -0.93134,4.98965 -2.44859,8.51584 -3.51306,8.50012 -0.40964,-0.006 -4.90514,-0.5281 -8.4771,-2.15668 z"
         id="path45"
         transform="matrix(7.4999995,0,0,-7.4999995,1411.0125,8722.4786)"
         sodipodi:nodetypes="ssssscssss" /><path
         style="fill:#089a6f;fill-opacity:1;stroke:none;stroke-width:0.0909227;stroke-dasharray:none;stroke-opacity:1"
         d="m 420.71952,351.56932 c -1.72752,-2.63653 -1.99259,-12.4632 -1.47616,-24.19623 0.53365,-12.12455 2.01924,-17.96026 2.99369,-18.28175 0.37599,-0.12405 5.29631,1.57032 8.49228,4.22478 6.65377,5.52638 12.5027,10.71305 23.67027,15.94915 4.29605,2.01427 9.30833,4.12821 9.31064,4.33208 0.0111,0.97423 -25.22283,15.33562 -32.5772,18.18854 -5.98869,2.32313 -9.1632,1.69166 -10.41352,-0.21657 z"
         id="path46"
         transform="matrix(7.4999995,0,0,-7.4999995,1411.0125,8722.4786)"
         sodipodi:nodetypes="ssssssss" /><path
         style="fill:#05d893;fill-opacity:1;stroke:#03708a;stroke-width:0.0454614;stroke-dasharray:none;stroke-opacity:1"
         d="m 419.67205,1058.7547 c 0.0432,-1.2175 0.7499,-4.7176 1.41448,-8.1016 2.04603,-10.4181 2.02858,-11.4637 2.23422,-20.5654 0.36628,-16.2122 -0.79961,-21.987 -5.53087,-29.2679 -4.62631,-7.11931 -14.66583,-18.82664 -21.77508,-23.58142 -1.98561,-1.328 -8.80088,-3.9035 -15.29621,-7.12934 -19.46952,-9.66933 -30.60388,-16.8457 -42.65747,-26.503 -9.9355,-7.9603 -18.81038,-18.43458 -24.58039,-27.72352 -8.054,-12.96584 -9.12625,-20.73939 -8.74,-41.24633 0.19177,-10.18172 0.67999,-15.64396 2.04849,-20.99475 1.47854,-5.78102 6.5979,-13.64336 9.91476,-15.58717 3.10417,-1.81916 7.81341,-0.49445 17.16359,4.17823 6.44019,3.21843 17.20698,3.63049 18.63155,9.35167 l 2.30988,4.21567 -0.0531,17.6129 c -0.0507,16.8148 -0.28734,17.18703 0.39703,19.87609 0.85744,3.3691 3.83153,9.43766 6.57933,13.42497 6.61886,9.60457 20.02921,21.29859 35.79828,33.20829 12.98506,9.80706 20.61066,16.76689 28.12102,24.25191 8.78397,8.75432 14.84774,16.78078 18.88917,25.12338 3.61174,7.45558 3.64528,10.59631 3.65708,18.21512 0.0202,13.0411 -3.45068,24.3042 -11.01936,36.817 -4.60107,7.6067 -12.82337,21.0469 -15.00766,18.7318 l -2.61948,-0.905 z"
         id="path44"
         transform="matrix(7.4999995,0,0,-7.4999995,1411.0125,8722.4786)"
         sodipodi:nodetypes="ssssssssssssscssssssssscs" /><path
         style="fill:#05d893;fill-opacity:1;stroke:none;stroke-width:2.64975;stroke-dasharray:none;stroke-opacity:1"
         d="m 445.32599,231.68764 c -2.25597,-0.29921 -7.25036,-1.43105 -11.09864,-2.51517 -6.54766,-1.84458 -10.91861,-4.83908 -11.71388,-9.65069 -0.4674,-2.82795 -3.3563,-18.33804 -1.46913,-33.16718 l 1.67689,-29.23396 9.11171,-0.4903 c 3.99711,-0.21509 12.77042,3.11576 19.16236,3.09204 13.86033,-0.0514 16.99299,-3.90657 26.71403,-12.86711 6.29346,-5.80111 19.49652,-19.01059 19.47525,-21.36192 -0.006,-0.65649 -6.04445,-3.70979 -12.08958,-10.47772 C 467.00973,94.767983 459.31161,74.400069 462.64498,55.476184 464.74491,43.554729 470.5795,29.203233 481.109,18.118403 496.89232,1.5026743 511.06214,-3.3753338 544.85273,-1.5375379 c 30.94481,1.68301995 60.21354,19.7982839 132.49233,70.7261219 77.37304,54.517256 118.92688,80.365836 154.83849,94.317946 25.94303,10.0792 31.1474,16.03508 22.62869,22.53261 -11.10913,8.47334 -28.49705,13.06029 -47.18679,10.23292 -37.5323,-5.67784 -67.71907,-18.78361 -122.04042,-59.4591 -25.16684,-18.84477 -39.74389,-31.71968 -46.94602,-42.909687 -14.17358,-22.021583 -12.43436,-24.518888 -12.43436,-5.175455 0,17.271252 -2.66827,30.331562 -10.66415,42.305502 -9.32413,13.963 -28.2227,25.87355 -39.98669,28.69629 -1.91422,0.4593 -14.29042,1.48983 -26.24937,2.29005 -11.95894,0.80022 -19.474,-2.34653 -19.77659,-2.04394 -0.3026,0.3026 5.50637,3.32233 7.21205,6.35716 2.8337,5.0419 -0.72234,8.07359 -2.30117,13.42067 -4.99497,16.9166 -24.61608,37.04439 -41.11457,45.11934 -13.13775,6.43008 -31.37541,9.01945 -47.99817,6.81475 z"
         id="path13"
         transform="matrix(7.4999995,0,0,-7.4999995,1411.0125,8722.4786)"
         sodipodi:nodetypes="sssscsssssssssssssssssssssss" /><path
         style="fill:#05d893;fill-opacity:1;stroke:none;stroke-width:2.64975;stroke-dasharray:none;stroke-opacity:1"
         d="m 616.99594,239.65825 c -5.33136,-1.35391 -15.0514,-4.08167 -19.2368,-6.06168 -21.16384,-10.0121 -47.60324,-38.92027 -47.60324,-51.45982 0,-4.59304 7.11005,-11.09546 14.43526,-12.18919 10.16612,-1.51789 20.43649,3.12834 36.83964,24.33789 14.03799,18.15137 19.526,23.59122 27.56559,29.23068 10.86002,7.61787 10.33771,13.07802 7.04771,15.51372 -4.23013,3.13171 -8.86134,3.21537 -19.04816,0.6284 z"
         id="path14"
         transform="matrix(7.4999995,0,0,-7.4999995,1411.0125,8722.4786)"
         sodipodi:nodetypes="ssssssss" /><path
         style="fill:#05d893;fill-opacity:1;stroke:none;stroke-width:2.64975;stroke-dasharray:none;stroke-opacity:1"
         d="m 684.15084,230.78892 c -19.06622,-2.54852 -34.3171,-9.22903 -50.35044,-20.97309 -12.81146,-9.3841 -28.76718,-25.67393 -33.23432,-32.12003 -4.71666,-6.80614 -2.99175,-13.88459 5.64423,-20.14045 10.1318,-7.33945 14.21008,-6.32783 45.67453,21.88621 7.3333,6.57573 24.50845,18.03261 36.54225,26.05056 19.83945,13.21872 22.7799,20.94298 20.94694,22.77594 -1.42549,1.42549 -16.32018,3.71089 -25.22319,2.52086 z"
         id="path15"
         transform="matrix(7.4999995,0,0,-7.4999995,1411.0125,8722.4786)"
         sodipodi:nodetypes="ssssssss" /><path
         style="fill:#05d893;fill-opacity:1;stroke:none;stroke-width:2.64975;stroke-dasharray:none;stroke-opacity:1"
         d="m 739.77204,218.12304 c -13.50323,-3.63824 -31.16118,-11.38065 -44.13019,-19.28816 -24.79603,-15.11871 -48.63603,-35.11108 -59.66988,-50.03951 -5.06624,-6.85446 -8.05825,-11.44706 -8.05825,-17.11186 0,-7.10944 5.62138,-14.98992 8.43504,-16.06963 2.43903,-0.93594 13.09845,4.8694 32.92455,20.67342 9.3999,7.49296 25.60192,17.51178 31.61786,21.9507 16.90688,12.4749 55.4165,38.97241 62.7839,42.35227 5.01449,2.30044 8.91175,6.92575 8.91175,9.24088 0,6.67085 -17.73734,12.35428 -32.81478,8.29189 z"
         id="path16"
         transform="matrix(7.4999995,0,0,-7.4999995,1411.0125,8722.4786)"
         sodipodi:nodetypes="ssssssssss" /><path
         style="fill:#05d893;fill-opacity:1;stroke:none;stroke-width:2.64975;stroke-dasharray:none;stroke-opacity:1"
         d="m 516.5028,283.20616 c -23.68137,-16.35989 -41.20905,-22.33553 -65.23232,-18.10546 -7.42824,1.30798 -16.49116,6.16745 -19.87951,4.96988 l -7.0232,-2.22714 -1.16318,-9.13667 c -0.62938,-4.94373 1.3074,-12.01629 1.87139,-12.08323 0.564,-0.0669 15.03349,1.03312 31.89235,-1.02544 l 29.175,-3.56245 12.12238,-3.71856 c 7.63023,-2.34059 16.42455,-9.86574 25.59208,-17.51193 8.13948,-6.78875 18.85441,-13.55168 20.26603,-13.55168 4.86609,0 35.07626,33.78205 35.07626,39.0812 0,2.69318 -5.64105,14.85917 -16.29033,27.60449 -10.69493,12.79995 -22.52286,19.05751 -27.48263,18.92564 -2.06366,-0.0549 -11.00808,-4.18984 -18.92432,-9.65865 z"
         id="path17"
         transform="matrix(7.4999995,0,0,-7.4999995,1411.0125,8722.4786)"
         sodipodi:nodetypes="ssscssscsssssss" /><path
         style="fill:#05d893;fill-opacity:1;stroke:none;stroke-width:1.87365;stroke-dasharray:none;stroke-opacity:1"
         d="m 456.02516,425.88959 c -10.27775,-2.61906 -38.45633,-19.95668 -38.45633,-23.57298 0,-2.0311 5.81535,-8.82166 14.92924,-12.92858 23.15086,-10.43229 41.0625,-24.19393 54.62215,-41.61632 11.56916,-14.86486 15.89426,-22.66913 16.9463,-40.29969 0.55516,-9.30358 0.69042,-8.12614 -1.03476,-8.11082 -1.01066,0.009 -3.67192,3.34538 -7.65997,6.58303 -11.55087,9.37748 -13.93462,9.64516 -31.7566,9.19073 -13.21426,-0.33693 -16.51238,-0.49656 -20.9612,-2.46815 -6.05645,-2.68406 -15.2091,-12.93378 -19.03407,-20.43237 -2.44796,-4.79903 -1.50038,-10.27776 -0.1555,-12.87847 5.17255,-10.00261 38.12059,-15.43879 59.41106,-11.04113 14.46182,2.98717 25.04883,11.1572 38.5347,25.32855 12.46895,13.10273 15.42969,22.82418 14.06697,41.15697 -1.65924,22.32194 -16.43147,48.5048 -36.51694,68.78808 -9.3169,9.40866 -21.60217,18.03757 -28.57121,20.94943 -3.17103,1.32494 -10.53216,2.32814 -14.36384,1.35172 z m 20.67427,-141.58035 c 2.71218,5.96699 -6.77906,-8.35912 -15.50734,-4.71221 -4.35273,1.81869 -4.1368,1.7316 0.0915,3.8868 4.41444,2.25008 13.51195,-3.36328 14.81161,-0.50394 z"
         id="path18"
         transform="matrix(7.4999995,0,0,-7.4999995,1411.0125,8722.4786)"
         sodipodi:nodetypes="ssssssssssssssssssssss" /><path
         style="fill:#05d893;fill-opacity:1;stroke:none;stroke-width:1.87365;stroke-dasharray:none;stroke-opacity:1"
         d="m 430.19651,799.05867 c -9.54514,-5.10753 -19.55445,-12.77335 -22.62185,-18.00746 -3.07643,-5.24955 -1.35429,-8.60076 5.57431,-17.92477 9.00288,-12.11542 15.45792,-27.55745 15.49087,-38.7915 0.0159,-5.4264 -4.3224,-12.36157 -7.03848,-18.50173 -4.38438,-9.91161 -24.92221,-26.70535 -73.67488,-55.89055 -24.9062,-14.9098 -34.19706,-21.52708 -47.05432,-34.33393 -12.01174,-11.96465 -21.21437,-24.32676 -27.73918,-37.807 -8.52428,-17.61114 -10.90716,-29.6391 -10.12048,-56.32254 0.59924,-20.32551 1.53749,-24.88266 7.86503,-38.20097 6.12131,-12.88423 26.05045,-38.67192 29.58319,-38.67192 3.0198,0 34.20573,16.35655 38.66061,20.27789 4.13939,3.64364 4.37958,7.81016 3.95491,10.97632 -0.26716,1.99186 -3.52867,9.11456 -6.67041,13.93442 -8.70327,13.35199 -11.74041,12.24382 -12.21671,25.70365 -0.46677,13.19084 1.82446,20.33609 7.30469,33.5002 7.85998,18.88053 12.31074,23.54865 54.50035,47.48447 36.64738,20.79149 62.61132,35.9943 79.59699,50.31551 9.38517,7.91297 26.28591,40.08791 28.55535,52.31715 1.46729,7.90667 1.36042,34.62085 -0.738,44.40986 -3.55793,16.59747 -15.87097,35.57624 -28.40032,47.27728 -7.6743,7.16694 -19.13779,12.48537 -24.096,12.48537 -1.63539,0 -6.98918,-2.23572 -10.71567,-4.22975 z"
         id="path19"
         transform="matrix(7.4999995,0,0,-7.4999995,1411.0125,8722.4786)"
         sodipodi:nodetypes="sssssssssssssssssssssss" /><path
         style="fill:#05b0d9;fill-opacity:1;stroke:none;stroke-width:2.64975;stroke-dasharray:none;stroke-opacity:1"
         d="m 407.79177,942.464 c -7.82735,-5.48247 -7.16377,-24.95398 -1.39831,-44.21627 4.25562,-14.21796 3.04731,-14.94728 -1.20749,-24.08623 -5.92973,-12.73747 -18.12196,-24.17032 -47.51395,-40.72822 -16.53774,-9.3165 -32.15288,-21.08653 -45.42383,-34.35748 -21.85071,-21.85071 -30.9933,-44.00088 -32.52665,-75.71282 -0.95401,-19.73038 0.56714,-31.25853 9.56807,-49.80793 7.30983,-15.06434 14.54075,-22.46368 19.11462,-22.46368 8.49707,0 46.64801,24.36416 46.64801,29.69502 0,0.98627 -4.744,8.61302 -7.54832,15.59211 l -5.01049,12.46954 0.43406,13.93144 c 0.36918,11.84908 1.02237,14.93758 3.61364,19.90148 6.21307,11.90191 23.0797,25.32007 61.02618,50.69412 21.78249,14.56552 42.98275,32.3709 50.15781,46.19781 6.62856,12.77375 6.39585,21.42184 6.35994,36.15999 -0.0527,21.61497 -7.45514,42.98359 -24.19999,58.82544 -12.02915,11.38045 -20.41411,13.44901 -25.56771,9.83928 z"
         id="path21"
         transform="matrix(7.4999995,0,0,-7.4999995,1411.0125,8722.4786)"
         sodipodi:nodetypes="cscssssssscsssssscc" /><path
         style="fill:#05b0d9;fill-opacity:1;stroke:none;stroke-width:2.64975;stroke-dasharray:none;stroke-opacity:1"
         d="m 335.12639,1054.1431 c -9.24025,-14.1166 -14.36825,-31.5069 -14.40457,-51.4915 -0.0221,-12.13002 0.6262,-17.746 4.36263,-23.63774 2.21311,-3.48971 9.2629,-8.45447 11.67814,-9.70344 7.77252,-4.01932 20.49802,5.08169 20.42888,11.85122 -0.0161,1.57543 -2.18641,10.51109 -5.56144,15.72126 -8.66313,13.3736 -10.65541,13.4786 -10.37358,36.9065 0.13343,11.0919 0.40269,22.4609 0.16772,22.4609 -0.23494,0 -5.19026,-0.4152 -6.29778,-2.1072 z"
         id="path22"
         transform="matrix(7.4999995,0,0,-7.4999995,1411.0125,8722.4786)"
         sodipodi:nodetypes="sssssssss" /><path
         style="fill:#05b0d9;fill-opacity:1;stroke:none;stroke-width:2.64975;stroke-dasharray:none;stroke-opacity:1"
         d="m 433.24732,613.58589 c -11.5439,-4.61769 -20.17131,-12.63443 -22.26051,-16.53815 -2.3072,-4.31103 -0.13774,-8.21877 11.62494,-22.04614 11.46822,-13.48124 13.20794,-19.08643 17.1421,-29.83134 3.77024,-10.2972 4.02186,-23.83292 0.84459,-33.14705 -3.15644,-9.25313 -8.42874,-17.83412 -18.98412,-25.00542 -5.25142,-3.5678 -34.3565,-18.77489 -65.56419,-34.53206 -31.20768,-15.75716 -62.69943,-32.95178 -68.66716,-36.88552 -34.14554,-22.50765 -52.98837,-55.5649 -49.02279,-83.56696 4.54918,-32.12305 37.9975,-59.96336 73.47217,-60.01586 13.53942,-0.02 28.28611,3.25173 33.61419,7.21287 2.58339,1.92061 4.15238,5.29241 4.04448,8.91429 -0.2793,9.37573 -13.24452,21.28103 -28.47041,26.01986 -14.6607,4.56292 -27.26949,2.82389 -39.65206,-6.26575 -3.59222,-2.63693 -5.73736,-4.83715 -6.54252,-4.83715 -4.31278,0 -0.8381,24.26302 3.85917,36.81761 5.70231,15.24079 17.87109,26.31664 40.8805,38.19114 15.4015,7.94827 27.40715,12.85801 58.92692,23.53585 32.71424,11.08248 45.48283,15.83472 69.47254,28.53985 18.22553,9.65238 21.94219,11.17907 32.66466,22.5695 14.10604,14.98477 23.92489,31.96191 27.10507,42.31318 3.48662,11.34873 2.73084,41.88598 -1.09563,56.09362 -6.72061,24.95352 -23.97402,49.25289 -47.52507,64.22626 -7.64593,4.86115 -12.15021,3.72418 -22.24137,-0.31239 z M 308.91783,287.55415 c 5.43961,-1.07531 8.79986,-2.57801 6.80264,-4.57523 -1.24526,-1.24526 -10.6992,-0.38934 -15.01259,0.7773 -4.20118,1.1363 -6.39249,4.81347 -2.921,4.39299 3.86126,-0.4677 -3.25508,2.24879 5.93441,0.4322 z"
         id="path23"
         transform="matrix(7.4999995,0,0,-7.4999995,1411.0125,8722.4786)"
         sodipodi:nodetypes="sssssssssssssssssssssssssssssss" /><path
         style="fill:#05b0d9;fill-opacity:1;stroke:none;stroke-width:2.64975;stroke-dasharray:none;stroke-opacity:1"
         d="m 234.80624,282.7271 c -14.0816,-10.43178 -25.71956,-24.13975 -30.52535,-36.78758 -2.38084,-6.26586 -4.76522,-13.68626 -2.01273,-18.2448 4.07285,-6.74528 24.27462,-27.76474 27.45969,-29.46934 1.651,-0.88359 6.63437,1.95387 7.15275,2.73171 4.64403,6.96836 20.62387,22.33583 27.85604,28.21697 21.18227,17.22523 28.69746,12.98699 64.0346,18.12892 l 26.2034,1.36726 0.85453,10.16403 c 0.99871,11.87886 -4.21014,15.35297 -19.98055,12.05971 -8.21844,-1.71622 -18.1011,-4.87665 -27.1999,-4.94994 -13.39844,-0.10792 -14.89714,1.80945 -24.99519,5.70367 -10.65313,4.10828 -26.28544,12.87173 -28.23355,16.02383 -2.00145,3.23841 -12.67945,0.93335 -20.61374,-4.94444 z"
         id="path24"
         transform="matrix(7.4999995,0,0,-7.4999995,1411.0125,8722.4786)"
         sodipodi:nodetypes="ssssssscssssss" /><path
         style="fill:#05b0d9;fill-opacity:1;stroke:none;stroke-width:2.65;stroke-dasharray:none;stroke-opacity:1"
         d="m 298.61733,233.16816 c -20.96843,-4.3685 -44.33459,-23.14702 -50.22039,-38.84646 -1.69156,-4.51196 -4.76877,-11.67708 -5.16713,-15.92249 -0.64506,-6.87437 -2.96937,-7.3767 -0.37646,-8.76439 3.31496,-1.77411 3.83834,-4.9155 1.00041,-6.00451 -1.05108,-0.40334 0.57253,-0.10852 -4.95632,-0.59817 -21.60983,-1.91379 -42.87912,-9.8308 -57.13863,-24.10152 -14.00919,-14.02018 -19.04211,-30.0879 -21.9673,-57.083988 -0.45942,-4.239859 -0.35978,-6.974377 -1.44968,-8.374462 -1.86348,-2.393823 -3.76844,1.669115 -13.08058,11.536678 -12.62237,13.37521 -20.63931,23.985232 -48.869487,42.980182 -46.570859,31.33565 -93.3237212,52.86106 -112.54441,57.50085 -10.208971,2.46442 -32.773608,2.17152 -40.930418,0.0351 -8.011976,-2.09849 -24.077361,-11.29512 -24.077361,-12.46408 0,-0.55644 9.533142,-7.41005 17.241065,-10.97348 18.556364,-8.57875 63.89769678,-33.22837 81.010099,-43.53468 16.160067,-9.73276 40.890452,-26.351187 86.820952,-57.782884 49.01376,-33.541665 78.73489,-47.867987 100.44872,-55.3845434 9.68619,-3.3530165 13.10374,-4.87606879 31.14996,-4.83704049 30.807,0.066626 51.98208,10.26311189 69.22387,27.30898889 11.53932,11.408207 10.35436,18.883656 10.37272,31.618528 0.0269,18.64212 -5.19692,34.848182 -21.10468,52.341661 -9.36605,10.29967 -9.61239,7.4834 -9.61239,13.04584 0,7.15505 10.49756,4.88272 19.97583,25.04974 l 8.3888,11.30712 17.56339,-3.14832 c 16.38874,-2.93776 23.54539,0.88201 24.59272,2.53641 1.63761,2.58678 0.55572,44.81763 -1.09935,54.92404 -0.72511,4.42787 -2.15269,12.06683 -3.38125,13.42438 -5.17277,5.71584 -28.34558,9.10059 -43.60915,5.92062 z"
         id="path25"
         transform="matrix(7.4999995,0,0,-7.4999995,1411.0125,8722.4786)"
         sodipodi:nodetypes="sssssssssssssssssssssssscssssss" /><path
         style="fill:#05b0d9;fill-opacity:1;stroke:none;stroke-width:2.64975;stroke-dasharray:none;stroke-opacity:1"
         d="m 135.97652,234.26661 c -3.46616,-1.39862 -0.36213,-9.25601 10.65845,-18.73183 6.20394,-5.33433 16.57559,-16.73067 23.34352,-23.70044 6.76793,-6.96977 14.85331,-16.88911 20.04916,-18.7021 l 9.43573,-5.42555 9.49163,-0.17135 c 8.9334,-0.16128 17.28832,7.56095 18.58713,10.94558 1.51605,3.95077 -10.195,21.55084 -23.4504,32.39842 -16.1373,13.20597 -29.48652,20.82654 -40.60645,24.26114 -8.07646,2.49456 -23.50811,0.74043 -27.50877,-0.87387 z"
         id="path26"
         transform="matrix(7.4999995,0,0,-7.4999995,1411.0125,8722.4786)"
         sodipodi:nodetypes="sssscsssss" /><path
         style="fill:#05b0d9;fill-opacity:1;stroke:none;stroke-width:2.64975;stroke-dasharray:none;stroke-opacity:1"
         d="m 67.351128,225.51022 c -7.977677,-1.91889 -3.646131,-8.48543 13.237223,-18.56062 15.700453,-9.36929 31.718759,-20.41476 48.776389,-35.05072 25.25171,-21.66671 32.82921,-26.97298 34.3077,-26.97298 0.82201,0 8.82371,5.49914 14.38432,10.89097 11.99488,11.63079 12.4014,13.17869 -10.8538,30.89456 -29.97905,22.83812 -53.33444,34.69722 -67.791718,38.46286 -7.406119,1.92905 -26.111886,1.76667 -32.060114,0.33593 z"
         id="path27"
         transform="matrix(7.4999995,0,0,-7.4999995,1411.0125,8722.4786)"
         sodipodi:nodetypes="ssssssss" /><path
         style="fill:#05b0d9;fill-opacity:1;stroke:none;stroke-width:2.64975;stroke-dasharray:none;stroke-opacity:1"
         d="M 8.3251902,205.9134 C 0.08238865,202.97171 -2.4518282,195.5717 0.5930268,194.66382 22.82904,188.03375 52.664166,169.59728 107.80967,128.40982 c 17.29583,-12.91802 34.54743,-24.57713 35.38277,-24.57979 1.82493,-0.006 13.23813,24.16149 14.21028,30.15216 0.63659,3.9229 -0.73009,7.6514 -9.3904,14.07961 -22.998,17.07111 -69.206982,47.92757 -86.61752,56.28173 -11.020623,5.28807 -14.284656,4.95529 -28.790138,5.39604 -12.296671,0.37363 -18.392192,-1.7251 -24.2794718,-3.82617 z"
         id="path28"
         transform="matrix(7.4999995,0,0,-7.4999995,1411.0125,8722.4786)"
         sodipodi:nodetypes="ssscscsss" /><path
         style="fill:#05b0d9;fill-opacity:1;stroke:#03708a;stroke-width:0.128584;stroke-dasharray:none;stroke-opacity:1"
         d="M 377.47563,87.60148 C 372.90793,86.651075 364.19955,81.705378 355.68377,72.900951 345.6376,62.514264 344.27502,58.184512 344.27502,43.747616 c 0,-9.429782 2.83024,-12.977231 4.08326,-15.287646 2.49863,-4.607204 7.01122,-18.8648011 15.17342,-19.61696 l 8.61858,-0.7942159 14.53548,-1.909526 c 13.1496,-1.727463 17.159,1.7556222 22.6324,4.4390729 7.42737,3.641422 14.59595,13.345036 17.93119,20.462407 2.29384,4.895053 2.85497,6.698086 2.85497,15.184289 0,8.521436 -1.7044,11.125155 -4.04279,16.117042 -5.74572,12.265646 -15.7318,21.598972 -25.1225,24.07619 -6.32445,1.66836 -19.02744,2.106207 -23.4634,1.183211 z m 26.63961,-20.067684 c 5.475,-2.793135 9.91337,-8.6818 12.78458,-14.526874 3.31659,-6.751745 3.02365,-15.758512 -0.3933,-22.406342 -3.17639,-6.179805 -7.9554,-10.72317 -12.1139,-10.31793 -2.59078,0.252468 -1.28939,-0.01371 -1.54684,2.643813 -0.16729,1.726905 0.65955,5.129782 2.10233,8.736152 3.12396,7.808679 2.12559,13.115132 -2.42697,22.07369 -2.17359,4.27719 -3.8966,7.597072 -7.63771,10.590802 -6.04081,4.834004 -7.6016,2.681301 -6.77189,4.843488 0.82915,2.160722 10.49842,1.171785 16.0037,-1.636799 z"
         id="path30"
         transform="matrix(7.4999995,0,0,-7.4999995,1411.0125,8722.4786)"
         sodipodi:nodetypes="ssssscsssssssssssssssss" /><path
         style="fill:#05b0d9;fill-opacity:1;stroke:#03708a;stroke-width:0.0909227;stroke-dasharray:none;stroke-opacity:1"
         d="m 387.57292,395.91291 c -5.03359,-0.27964 -12.21352,-4.54658 -15.76654,-6.36053 -4.20921,-2.14895 -7.09082,-4.93052 -7.78558,-10.47665 -1.88011,-15.00835 -2.52819,-110.52769 -2.55018,-215.61249 l -0.0137,-65.473277 5.11864,-3.300952 c 1.98062,-1.277276 11.98286,1.759176 20.22476,2.330976 8.2419,0.5718 18.50663,1.015127 20.04285,2.675707 l 4.33248,1.636066 -0.35157,38.32859 c -0.18484,20.15101 -1.39995,46.33815 -1.94277,58.93403 -1.01582,23.57168 -2.2953,63.55101 -4.07494,126.27123 -1.50349,52.98781 -0.63482,67.04118 -2.49068,69.92186 -1.15887,1.7988 -2.79708,1.78909 -8.21693,1.48799 z"
         id="path31"
         transform="matrix(7.4999995,0,0,-7.4999995,1411.0125,8722.4786)"
         sodipodi:nodetypes="sssscssscssssss" /><path
         style="fill:#089a6f;fill-opacity:1;stroke:#03708a;stroke-width:0.0909227;stroke-dasharray:none;stroke-opacity:1"
         d="m 387.14021,771.56533 c -3.44682,-1.47597 -10.41316,-6.36068 -11.90105,-9.82254 -2.17344,-5.05697 -2.64526,-15.4505 -2.98472,-44.58133 l -0.32155,-27.59427 8.62468,1.50411 c 8.02848,1.40014 11.79646,8.7186 13.04577,11.13448 2.01326,3.89323 0.73382,12.89082 0.47447,39.38387 -0.25361,25.90593 -1.36768,28.3819 -3.71106,29.28114 -0.50013,0.19192 -2.11824,1.16909 -3.22654,0.69454 z"
         id="path40"
         transform="matrix(7.4999995,0,0,-7.4999995,1411.0125,8722.4786)"
         sodipodi:nodetypes="ssscsssss" /><path
         style="fill:#089a6f;fill-opacity:1;stroke:#03708a;stroke-width:0.0909227;stroke-dasharray:none;stroke-opacity:1"
         d="m 382.21601,923.36135 c -4.3659,-4.64729 -5.81759,-13.66239 -5.92386,-34.6969 -0.067,-13.26789 0.7908,-16.35434 1.77694,-17.34213 1.04974,-1.05152 2.51073,-0.83424 4.42151,0.29449 4.23396,2.50106 6.54654,10.04872 7.7545,23.95891 0.42058,4.84315 1.3927,13.42083 1.20978,17.36879 -0.5095,10.99624 -5.50394,14.39249 -9.23887,10.41684 z"
         id="path41"
         transform="matrix(7.4999995,0,0,-7.4999995,1411.0125,8722.4786)"
         sodipodi:nodetypes="sssssss" /><path
         style="fill:#089a6f;fill-opacity:1;stroke:#03708a;stroke-width:0.0909227;stroke-dasharray:none;stroke-opacity:1"
         d="m 383.5861,1140.377 c -3.12694,-7.8158 -3.87075,-47.6693 -4.30079,-94.1123 -0.3877,-41.8701 1.52486,-54.56319 2.85423,-53.23381 0.75522,0.75521 2.32435,12.99571 3.26207,27.54261 0.93162,14.4522 2.0546,109.656 1.27292,116.4251 -0.47073,4.0757 -1.86459,6.4374 -2.48406,4.889 z"
         id="path42"
         transform="matrix(7.4999995,0,0,-7.4999995,1411.0125,8722.4786)"
         sodipodi:nodetypes="sssssss" /><path
         d="m 4427,8573 c -13,-12 -7,-54 14,-95 19,-37 20,-47 10,-93 -15,-65 -51,-118 -101,-150 -42,-26 -53,-54 -22,-57 64,-5 124,24 180,87 67,76 76,179 22,254 -29,42 -86,72 -103,54 z"
         id="path2"
         transform="translate(-1.7716529e-6,1.1811023e-4)" /><path
         style="fill:#05b0d9;fill-opacity:1;stroke:#03708a;stroke-width:0.0909227;stroke-dasharray:none;stroke-opacity:1"
         d="m 381.16421,585.44103 c -4.7595,-1.98303 -7.10591,-5.34215 -8.4342,-8.66187 -2.58414,-6.45841 -6.38721,-28.88921 -7.67733,-61.74148 -0.76059,-19.36819 2.56026,-27.84956 4.11661,-29.14122 0.55492,-0.46053 4.39332,-1.9319 6.58938,-1.74978 4.4621,0.37003 16.78055,7.50164 20.38543,11.00265 3.93356,3.82022 4.21453,5.72461 4.13393,32.69812 -0.0932,31.18114 -2.59705,55.72346 -5.04506,59.56122 -1.31572,2.06268 -7.38955,0.81523 -12.01787,-1.11315 z"
         id="path43"
         transform="matrix(7.4999995,0,0,-7.4999995,1411.0125,8722.4786)"
         sodipodi:nodetypes="ssssssssss" /><path
         d="m 3658,6609 c -31,-12 -38,-46 -13,-56 24,-9 136,18 142,34 3,8 3,17 -1,20 -11,11 -101,13 -128,2 z"
         id="path4"
         transform="translate(-1.7716529e-6,1.1811023e-4)" /><path
         d="m 4844,6625 c -19,-15 -19,-15 0,-30 43,-33 146,-25 146,11 0,33 -109,48 -146,19 z"
         id="path3"
         transform="translate(-1.7716529e-6,1.1811023e-4)" /><path
         d="m 3080,8769 c -114,-12 -262,-53 -342,-96 -68,-35 -362,-229 -648,-426 -461,-319 -709,-471 -979,-603 -163,-79 -238,-109 -344,-134 -44,-11 -82,-22 -85,-25 -8,-8 45,-61 113,-112 114,-86 279,-153 376,-153 65,0 140,-26 269,-93 58,-30 130,-59 160,-65 30,-6 94,-17 142,-26 47,-9 128,-33 180,-52 85,-34 105,-38 238,-45 111,-6 165,-14 230,-34 194,-60 187,-59 259,-40 36,10 88,26 114,36 26,11 53,19 61,19 7,0 23,-26 36,-57 77,-190 153,-303 257,-382 l 71,-53 -29,-82 c -38,-107 -39,-213 -5,-350 30,-117 107,-269 183,-361 57,-70 194,-192 231,-206 12,-5 22,-14 22,-22 0,-15 -43,-81 -100,-152 -57,-71 -117,-191 -136,-271 -13,-58 -15,-109 -11,-309 3,-132 11,-262 18,-290 26,-113 115,-269 233,-410 l 74,-89 -31,-39 c -120,-144 -170,-221 -222,-337 -18,-40 -20,-66 -19,-240 1,-300 19,-350 213,-604 150,-196 151,-198 101,-258 -73,-89 -101,-217 -82,-381 22,-182 72,-302 173,-414 81,-90 86,-105 54,-162 -83,-151 -99,-232 -76,-402 16,-121 35,-177 82,-248 50,-76 131,-137 247,-187 l 89,-39 6,-210 c 7,-228 15,-275 55,-317 44,-47 80,-30 101,47 9,35 27,272 34,465 l 2,65 80,6 c 99,6 162,36 235,111 56,57 110,159 131,248 16,71 16,230 0,298 -7,29 -35,86 -63,129 -34,52 -48,82 -44,97 3,12 31,53 62,91 169,210 209,308 208,510 0,117 -3,137 -28,205 -45,119 -102,210 -133,210 -22,0 -14,36 18,76 16,22 79,86 138,144 189,183 220,252 228,500 7,196 -6,303 -47,387 -27,54 -61,96 -204,250 l -30,33 65,57 c 204,181 284,298 331,492 17,70 21,116 21,246 0,279 -33,363 -242,608 l -74,88 39,42 c 22,23 68,72 103,109 34,36 89,101 122,143 132,173 169,273 178,490 4,87 12,159 19,172 7,12 31,35 55,52 86,59 182,171 231,268 25,51 56,99 68,107 23,15 211,38 418,51 333,22 464,46 581,106 39,20 59,22 179,23 l 135,1 95,42 c 101,44 164,63 297,87 45,8 107,25 136,39 104,47 267,228 283,314 10,55 -8,63 -126,56 -125,-8 -156,2 -364,114 -297,159 -561,329 -941,604 -255,184 -505,349 -610,402 -154,78 -316,121 -495,133 -169,12 -330,-47 -442,-160 -124,-124 -182,-261 -182,-431 -1,-157 30,-251 128,-396 31,-45 55,-87 53,-93 -6,-20 -93,-57 -173,-73 -56,-11 -98,-14 -145,-9 l -66,7 -7,82 c -3,45 -6,145 -6,222 1,150 -4,128 74,345 53,147 23,304 -79,405 -123,124 -333,139 -493,36 -69,-45 -107,-88 -141,-161 -23,-49 -26,-67 -26,-165 1,-98 4,-117 29,-175 65,-150 82,-241 74,-399 -6,-115 -24,-163 -70,-187 -47,-24 -156,-31 -194,-11 -45,23 -134,107 -134,126 0,9 25,48 55,86 139,177 175,295 141,460 -57,279 -271,464 -573,495 -48,5 -95,9 -103,8 -8,0 -49,-4 -90,-9 z m 2589,-104 c 200,-64 386,-173 821,-485 551,-395 938,-623 1219,-721 52,-18 103,-41 114,-52 16,-16 17,-21 4,-40 -24,-38 -102,-83 -162,-95 -83,-17 -153,-15 -265,8 -233,47 -392,124 -680,328 -320,227 -479,368 -537,477 -36,67 -67,105 -87,105 -11,0 -13,-19 -9,-98 6,-106 -7,-174 -52,-262 -57,-113 -190,-235 -288,-265 -27,-8 -108,-17 -180,-20 -73,-3 -147,-8 -165,-11 l -32,-5 22,-39 c 21,-35 22,-42 10,-87 -23,-88 -64,-156 -142,-233 -121,-121 -243,-170 -426,-170 -80,0 -211,25 -231,44 -17,16 -23,496 -6,496 6,0 42,-7 80,-16 185,-43 320,18 441,201 l 39,60 -81,85 c -44,47 -95,113 -113,145 -61,116 -79,248 -47,356 21,70 46,111 112,181 115,122 198,150 422,144 112,-3 149,-9 219,-31 z m -2312,9 c 138,-28 245,-93 336,-202 56,-67 67,-101 67,-203 0,-143 -52,-251 -179,-373 -95,-91 -83,-145 64,-295 l 103,-105 148,17 c 81,9 150,14 153,11 3,-3 6,-101 6,-217 0,-227 -8,-276 -48,-301 -12,-8 -64,-21 -115,-30 -154,-26 -292,6 -433,99 -87,58 -143,122 -169,193 -47,126 -50,194 -9,205 12,3 19,11 17,19 -6,17 -41,26 -108,27 -229,5 -456,172 -529,388 -12,35 -25,108 -30,164 -10,122 -26,149 -63,104 -13,-15 -45,-52 -73,-83 -153,-167 -874,-627 -1123,-716 -169,-60 -351,-57 -487,8 l -70,33 85,38 c 146,66 486,243 613,319 157,94 392,250 686,455 391,274 665,425 816,450 86,15 261,12 342,-5 z m 1108,-37 c 144,-73 199,-234 131,-384 -34,-74 -106,-146 -162,-162 -76,-22 -177,-25 -215,-7 -44,21 -162,134 -186,178 -24,45 -25,200 -1,243 24,44 130,144 164,155 16,5 72,8 124,6 78,-2 104,-7 145,-29 z m -47,-674 62,-6 v -269 c 0,-148 -4,-344 -10,-436 -5,-92 -16,-423 -25,-737 -17,-650 -22,-740 -41,-756 -17,-14 -79,1 -173,39 -54,22 -66,32 -73,57 -16,59 -28,611 -28,1364 v 764 l 113,-7 c 61,-3 140,-9 175,-13 z M 2530,7847 c 21,-46 43,-100 48,-120 10,-37 10,-38 -38,-76 -148,-117 -602,-403 -707,-446 -91,-37 -234,-46 -328,-20 -70,19 -110,49 -85,65 8,6 24,10 35,10 61,0 390,198 622,373 54,40 165,124 246,185 82,62 153,112 158,112 6,0 28,-37 49,-83 z m 3710,-17 c 21,-11 90,-62 152,-113 150,-124 244,-194 417,-312 183,-125 330,-215 352,-215 22,0 33,-33 20,-59 -35,-65 -197,-52 -393,34 -252,110 -604,403 -639,530 -13,47 2,122 28,143 21,15 17,16 63,-8 z M 2730,7554 c 44,-42 80,-80 80,-85 0,-5 -48,-46 -107,-91 -265,-205 -422,-302 -538,-333 -102,-26 -265,-15 -265,19 0,19 20,34 111,86 113,65 244,159 362,262 56,49 135,118 176,153 41,36 80,65 88,65 7,0 49,-34 93,-76 z m 3355,-13 c 17,-10 79,-64 139,-121 135,-126 181,-161 360,-275 77,-50 142,-98 144,-108 6,-32 -42,-41 -160,-28 -180,19 -264,55 -426,178 -103,79 -230,205 -238,237 -8,35 15,70 74,107 54,34 67,35 107,10 z M 3040,7438 c 43,-13 70,-35 70,-58 0,-21 -40,-82 -83,-129 -66,-70 -225,-194 -292,-227 -97,-47 -211,-71 -265,-55 -64,19 -61,25 63,129 41,35 131,123 200,196 69,73 141,140 159,149 34,18 78,16 148,-5 z m 2711,-13 c 16,-9 69,-69 120,-138 101,-136 176,-218 229,-249 48,-29 80,-59 80,-75 0,-8 -17,-21 -37,-30 -35,-15 -43,-14 -108,2 -146,37 -261,108 -376,233 -65,71 -109,146 -109,186 0,13 8,34 18,46 30,37 131,51 183,25 z M 3218,7162 c 100,-135 250,-254 371,-294 59,-20 87,-22 271,-23 h 205 l 3,-51 c 2,-28 -2,-63 -8,-78 -12,-31 -12,-31 -125,-2 -33,9 -112,19 -175,22 -107,6 -120,5 -195,-20 -93,-32 -174,-76 -228,-124 -46,-40 -65,-38 -136,11 -107,72 -233,229 -261,324 -13,41 -12,42 32,105 54,74 168,198 184,198 6,0 34,-31 62,-68 z m 2334,-59 c 100,-94 188,-201 188,-231 0,-45 -173,-257 -258,-316 -53,-36 -69,-32 -164,40 -186,142 -376,186 -580,133 -44,-11 -95,-19 -112,-17 l -31,3 -3,73 c -2,39 1,72 5,72 4,0 107,2 228,3 199,3 226,5 280,25 72,27 148,76 235,152 90,78 133,110 148,110 7,0 36,-21 64,-47 z m -530,-414 c 98,-21 176,-66 263,-153 101,-101 125,-148 125,-242 0,-98 -16,-175 -57,-274 -68,-165 -203,-332 -343,-424 -120,-79 -144,-79 -302,0 -89,45 -158,96 -158,118 0,22 31,42 122,81 147,62 288,169 389,293 93,116 122,185 135,330 8,86 1,90 -66,33 -89,-75 -105,-81 -212,-81 -53,0 -119,5 -147,11 -63,13 -128,69 -166,142 -28,53 -28,55 -12,81 49,74 271,118 429,85 z m -1085,-40 c 81,-25 101,-52 84,-110 -24,-79 -127,-155 -245,-179 -99,-20 -188,2 -258,66 -22,19 -45,33 -51,31 -18,-6 -20,-144 -3,-227 45,-216 264,-364 782,-529 199,-63 345,-123 483,-200 58,-32 123,-66 144,-76 76,-36 291,-291 321,-382 54,-164 35,-419 -44,-587 -61,-129 -176,-251 -314,-335 -54,-32 -58,-33 -101,-21 -59,16 -187,92 -214,126 -39,50 -30,73 81,192 168,182 205,400 93,557 -60,86 -140,137 -475,302 -557,274 -626,313 -764,424 -112,89 -205,226 -242,353 -26,94 -16,223 25,308 75,158 243,278 431,308 74,11 191,2 267,-21 z m 712,-302 c 39,-33 145,-90 234,-126 16,-6 -252.0686,-142.9196 -291.2688,-145.0211 C 4582.6226,6047.696 4936,6167 4953,6159 c 17,-8 33,-20 35,-27 5,-18 -139,-158 -214,-208 -34,-22 -91,-53 -127,-69 -76,-32 -92,-27 -103,31 -13,68 29,115 161,182 33,16 241.3982,91.5696 255.3982,103.5696 -114.1261,-20.6875 -223.7444,-63.3306 -337.0237,-86.9929 -47,-13 -44.3745,-2.5767 -54.3745,21.4233 -10,29 -12,153 -3,243 8,69 1,69 83,-2 z m -579,-89 c 0,-136 -12,-208 -33,-208 -15,0 -307,142 -307,149 0,4 30,19 66,35 36,16 107,58 157,93 51,35 98,63 105,63 9,0 12,-33 12,-132 z m -290,-151 c 87,-38 209,-107 263,-149 39,-32 50,-71 21,-82 -21,-8 -86,10 -144,39 -96,49 -250,178 -250,210 0,23 27,18 110,-18 z m 9,-801 c 191,-96 203,-118 121,-230 -27,-38 -57,-91 -65,-119 -19,-66 -19,-173 1,-251 22,-86 79,-205 117,-244 41,-43 176,-130 352,-227 291,-161 567,-350 627,-430 51,-67 133,-219 154,-283 26,-83 16,-319 -19,-427 -50,-151 -148,-283 -261,-350 -33,-19 -73,-35 -89,-35 -60,0 -211,100 -242,161 -22,42 -19,51 30,111 70,85 125,225 125,317 0,16 -9,60 -21,97 -18,59 -29,77 -77,123 -68,64 -311,227 -517,346 -180,104 -269,171 -363,269 -86,90 -143,173 -193,281 -54,115 -64,167 -64,345 0,178 10,229 65,345 40,83 173,255 197,255 7,0 62,-24 122,-54 z m 513,-258 c 98,-52 98,-52 98,-257 -1,-207 -15,-423 -30,-451 -14,-25 -40,-25 -90,0 -54,27 -68,53 -80,140 -21,162 -37,550 -24,584 10,25 61,19 126,-16 z m -211,-115 c 14,-36 23,-348 12,-398 -14,-65 -39,-54 -86,39 -50,98 -60,184 -32,277 30,96 84,139 106,82 z m 477,-68 c 12,-9 34,-37 49,-63 24,-40 28,-58 28,-122 0,-79 -22,-137 -68,-187 -49,-55 -62,-14 -62,202 0,187 5,203 53,170 z M 3861,3763 c 140,-82 189,-119 189,-146 0,-12 -19,-60 -42,-106 -43,-83 -43,-85 -43,-190 0,-90 4,-114 24,-159 39,-86 169,-200 409,-359 160,-105 226,-156 292,-222 133,-134 193,-268 193,-431 1,-149 -55,-282 -165,-392 -150,-150 -239,-156 -269,-18 -15,72 -5,174 26,256 31,83 31,115 0,183 -47,100 -163,195 -387,315 -193,103 -412,307 -480,446 -60,123 -90,238 -95,370 -6,146 10,221 78,355 53,106 72,134 104,153 29,17 58,7 166,-55 z m 485,-310 c 10,-24 14,-88 14,-241 0,-115 -3,-224 -6,-241 -8,-39 -31,-40 -75,-4 -57,49 -62,73 -67,342 l -4,243 62,-33 c 46,-24 66,-42 76,-66 z m -196,-148 c 0,-44 -21,-145 -30,-145 -13,0 -33,100 -27,137 12,71 57,78 57,8 z m 366,-31 c 9,-37 -2,-152 -16,-169 -23,-28 -30,-15 -30,53 0,108 29,183 46,116 z m -611,-878 c 39,-19 90,-48 115,-64 l 45,-29 -3,-139 c -3,-138 -3,-139 28,-201 41,-82 154,-196 305,-308 172,-128 282,-241 331,-340 36,-73 39,-85 38,-160 -1,-96 -23,-165 -88,-269 -42,-67 -101,-135 -110,-125 -2,2 5,45 15,94 14,64 19,121 17,195 -4,133 -23,176 -127,281 -68,68 -90,83 -206,138 -230,111 -392,237 -483,379 -64,100 -77,148 -77,292 0,138 16,206 62,260 32,38 53,38 138,-4 z m 374,-216 c 34,-17 52,-87 58,-214 5,-124 -4,-176 -30,-176 -23,0 -45,33 -57,85 -13,57 -18,284 -6,303 9,15 12,15 35,2 z m -103,-65 c 8,-44 -4,-111 -17,-98 -23,23 -23,133 1,133 5,0 12,-16 16,-35 z m -114,-702 c 30,-27 22,-65 -31,-137 -73,-99 -87,-182 -68,-390 6,-59 6,-86 -1,-82 -23,14 -86,123 -103,178 -23,74 -40,249 -30,306 11,54 58,122 100,143 36,19 102,10 133,-18 z m 238,-396 c 12,-248 12,-823 1,-852 -11,-27 -19,57 -31,330 -11,253 -13,735 -3,761 14,36 23,-28 33,-239 z m -128,166 c 17,-48 19,-439 2,-467 -10,-16 -13,-14 -37,26 -49,85 -71,165 -71,268 0,81 3,102 23,140 44,84 62,91 83,33 z m 302,-66 c 19,-26 21,-42 21,-175 0,-138 -1,-149 -24,-180 -30,-43 -53,-38 -64,13 -9,42 -2,313 9,353 8,29 31,25 58,-11 z"
         id="path1"
         sodipodi:nodetypes="cccccscscsccccccscccccccsscccccccccccccccccccccccccccccccsccccccccscccccccccccscccccccccccccccccccccccccccccsccccccccscccccscccccccccscscccccccscccsccccssccccccccccccccccccccccccccccccscccccscccscccccsccsscccscccccssccscccssccccccccccsccccscccccscccscccccccccccccccsccsccccccscccsccsscccsccccsccccccccsccccccccccccccccccccsccccccccccsssscssccccscccccccccccsccscccccscsccccsccccccccccscsccscsccccscccccccccsscccccssscsccscccccsccccccccccsccccsccccsscccccccccccccccccscccscccc" /></g></g><style
     type="text/css"
     id="style1">&#10;	.st0{fill:#000000;}&#10;</style></svg>
