<?xml version="1.0" encoding="UTF-8" standalone="no"?>
<!-- Created with Inkscape (http://www.inkscape.org/) -->

<svg
   width="48"
   height="48"
   viewBox="0 0 12.699999 12.7"
   version="1.1"
   id="svg1"
   sodipodi:docname="logo.svg"
   inkscape:version="1.3 (0e150ed6c4, 2023-07-21)"
   inkscape:export-filename="logo.pdf"
   inkscape:export-xdpi="96"
   inkscape:export-ydpi="96"
   xml:space="preserve"
   xmlns:inkscape="http://www.inkscape.org/namespaces/inkscape"
   xmlns:sodipodi="http://sodipodi.sourceforge.net/DTD/sodipodi-0.dtd"
   xmlns="http://www.w3.org/2000/svg"
   xmlns:svg="http://www.w3.org/2000/svg"><sodipodi:namedview
     id="namedview1"
     pagecolor="#ffffff"
     bordercolor="#000000"
     borderopacity="0.25"
     inkscape:showpageshadow="2"
     inkscape:pageopacity="0.0"
     inkscape:pagecheckerboard="0"
     inkscape:deskcolor="#d1d1d1"
     inkscape:document-units="mm"
     inkscape:zoom="11.313709"
     inkscape:cx="-12.418563"
     inkscape:cy="24.704543"
     inkscape:window-width="2560"
     inkscape:window-height="1017"
     inkscape:window-x="1912"
     inkscape:window-y="-8"
     inkscape:window-maximized="1"
     inkscape:current-layer="layer1" /><defs
     id="defs1" /><g
     inkscape:label="Layer 1"
     inkscape:groupmode="layer"
     id="layer1"><rect
       style="fill:#03708a;fill-opacity:1;stroke-width:0.0279756"
       id="rect4-3"
       width="0.51809418"
       height="5.8025899"
       x="6.161417"
       y="2.205318"
       transform="matrix(0.99996753,0.00805908,0,1,0,0)" /><rect
       style="fill:#089a6f;fill-opacity:1;stroke-width:0.0325439"
       id="rect4-6-7"
       width="0.81297821"
       height="5.0040889"
       x="9.6680164"
       y="-0.43873304"
       transform="matrix(0.63725856,0.77065007,0,1,0,0)" /><rect
       style="fill:#05b0d9;fill-opacity:1;stroke-width:0.0282147"
       id="rect4"
       width="0.51808292"
       height="5.9022713"
       x="5.9825792"
       y="2.3247716"
       transform="matrix(0.99998918,-0.00465232,0,1,0,0)" /><rect
       style="fill:#05d893;fill-opacity:1;stroke-width:0.0305144"
       id="rect4-6"
       width="0.77568138"
       height="4.6109653"
       x="8.96064"
       y="0.79720289"
       transform="matrix(0.66789965,0.74425134,0,1,0,0)" /><path
       d="M 5.0674359,0.08365165 C 5.0127212,0.08514942 4.9495773,0.09809212 4.8725861,0.12472064 3.738403,0.51737017 2.0118231,1.5506394 0.48184044,2.013454 0.75325794,2.1816099 1.0489958,2.3299896 1.3552576,2.4476502 1.6976104,2.2905209 2.0319949,2.1342641 2.3154841,1.977511 2.6626158,1.7855844 4.0048774,1.0083085 4.0283295,0.83412891 L 3.3117737,1.6925434 C 3.0348515,1.9272427 2.8778381,2.1236169 2.509009,2.3275166 2.3256081,2.4289275 2.1271562,2.5277394 1.9223852,2.6250778 c 0.1878476,0.045216 0.3765484,0.077237 0.5632533,0.092665 0.084441,0.00698 0.1682781,0.010746 0.2513901,0.011411 C 3.1331046,2.483529 3.5273679,2.1002163 3.7027138,1.895607 L 4.6406987,0.97987542 C 4.5541024,1.1433533 3.7651234,2.4462606 3.6087936,2.592966 3.9994959,2.4555324 4.2131509,2.0122563 4.5068648,1.6206279 l 0.3211485,-0.046279 0.151882,0.2603676 c 0.117584,0.2015709 0.2760388,0.3702265 0.4558163,0.5153839 0.1332865,-0.0204 0.2508191,-0.034335 0.37133,-0.041219 V 1.53408 C 5.5645727,1.3511788 5.4070892,1.0608919 5.4070892,0.73565584 5.4070327,0.60430684 5.4330962,0.47425624 5.4837805,0.35308165 5.4203185,0.26426602 5.3547977,0.1944 5.2889801,0.15130555 5.2346942,0.11573661 5.1808731,0.09169092 5.115478,0.08523798 5.0995047,0.0837402 5.0834894,0.08330947 5.0674407,0.0837402 Z"
       style="fill:#03708a;fill-opacity:1;stroke-width:0.0249967"
       id="path1-3-8" /><path
       d="M 4.8589955,0.04563353 C 4.8042808,0.0471313 4.7411369,0.0600738 4.6641457,0.08670232 3.5299627,0.47935173 1.8033828,1.512621 0.27340002,1.9754355 0.54481748,2.1435915 0.84055548,2.2919712 1.1468171,2.4096318 1.4891701,2.2525025 1.8235546,2.0962457 2.1070438,1.9394925 2.4541756,1.747566 3.7964369,0.97029007 3.8198892,0.79611049 L 3.1033334,1.6545249 C 2.8264111,1.8892243 2.6693978,2.0855986 2.3005686,2.2894983 2.1171677,2.390909 1.9187159,2.4897209 1.7139449,2.5870594 c 0.1878474,0.045216 0.3765483,0.077237 0.5632532,0.092665 0.084441,0.00698 0.168278,0.010746 0.2513901,0.011411 C 2.9246644,2.4455106 3.3189277,2.0621979 3.4942736,1.8575885 L 4.4322582,0.94185728 C 4.3456623,1.1053352 3.5566832,2.4082425 3.4003533,2.5549479 3.7910556,2.4175143 4.0047105,1.9742382 4.2984244,1.5826098 L 4.619573,1.5363311 4.771455,1.7966987 c 0.1175841,0.2015709 0.2760388,0.3702266 0.4558165,0.5153839 0.1332864,-0.0204 0.2508191,-0.034336 0.3713297,-0.041219 V 1.4960619 C 5.3561323,1.3131606 5.1986488,1.0228738 5.1986488,0.6976377 5.1985924,0.56628872 5.2246562,0.43623811 5.2753396,0.31506359 5.2118772,0.2262483 5.1463569,0.15638184 5.0805393,0.11328739 5.0262534,0.07771846 4.9724321,0.05367336 4.9070371,0.04721973 4.8910639,0.04572195 4.8750484,0.04528829 4.8589999,0.04572195 Z"
       style="fill:#05b0d9;fill-opacity:1;stroke-width:0.0249967"
       id="path1-3" /><g
       id="g1"
       style="display:none"><path
         d="m 5.9056166,2.9566101 c -0.038988,3.838e-4 -0.077945,0.00236 -0.1168346,0.00505 C 5.467272,2.9851941 5.1707857,3.1051711 5.0070303,3.1827874 4.6344,3.359412 4.5472893,3.444844 4.4706251,3.5997491 c -0.07667,0.1549317 -0.099556,0.3833931 -0.099556,0.5829181 0,0.2332969 -0.044101,0.4081552 0.1520438,0.5729816 0.1961761,0.1648296 0.4788655,0.3034873 0.7699016,0.4186983 0.4525757,0.237583 1.9716957,0.7954657 2.0115291,1.037774 0.1179094,-0.1239598 0.1145538,-0.1720815 0.1145538,-0.2769209 0,-0.062487 -0.016669,-0.1315345 -0.047318,-0.2045215 L 5.7401931,4.9213454 C 5.1182684,4.7026435 4.9685827,4.4763337 4.93829,4.2283147 4.8810347,3.5774598 5.4160417,3.4532817 5.943574,3.2598873 6.1455215,3.1079626 5.9774168,3.0972736 6.2184752,3.001916 6.1183185,2.9580178 6.004575,2.9556486 5.9056156,2.9566777 Z"
         style="fill:#089a6f;fill-opacity:1;stroke-width:0.0249967"
         id="path1-81-0" /><path
         d="m 6.5201533,2.9799745 c -0.104338,0.00344 -0.232444,0.0015 -0.3128589,0.045249 0.180454,0.099514 0.2136656,0.1279423 0.3825667,0.2826208 0.1725308,0.1580826 0.9102618,0.07563 1.0557031,0.6136866 -0.027539,0.8241963 -0.5079445,0.6352113 -1.1364525,0.8463084 0.2512178,0.1607784 0.4706228,0.1221351 0.6019343,0.4055622 0.017366,-0.00665 0.00441,0.031153 0.02174,0.02427 C 7.4237999,5.0824605 7.7064627,4.943802 7.9026612,4.7789755 8.0987857,4.6141459 8.1070668,4.4254836 8.1070668,4.1922134 8.1070668,3.9926885 8.0786812,3.7945401 8.0020211,3.6396072 7.9253304,3.4847031 7.8575105,3.3910061 7.4848822,3.214377 7.3211504,3.1367643 6.9585015,3.0085262 6.6369926,2.9849788 c -0.038882,-0.00267 -0.077847,-0.00449 -0.1168345,-0.00505 z"
         style="fill:#03708a;fill-opacity:1;stroke-width:0.0249967"
         id="path1-8-4" /><path
         d="m 6.7475024,2.9707539 c -0.104338,0.00344 -0.232444,0.0015 -0.3128589,0.045249 0.1804542,0.099514 0.2136656,0.1279423 0.3825667,0.2826208 C 6.989741,3.4567064 7.727472,3.3742537 7.8729133,3.9123103 7.845374,4.736507 7.3649689,4.547522 6.7364608,4.7586191 c 0.2512178,0.1607784 0.4706228,0.1221351 0.6019344,0.4055622 0.017366,-0.00665 0.00441,0.031153 0.02174,0.024269 C 7.6511495,5.0732398 7.9338123,4.9345814 8.1300107,4.7697549 8.3261352,4.6049253 8.3344165,4.4162629 8.3344165,4.1829927 8.3344165,3.9834678 8.3060312,3.7853194 8.2293706,3.6303866 8.1526795,3.4754825 8.0848596,3.3817855 7.7122312,3.2051564 7.5484995,3.1275438 7.1858507,2.9993056 6.8643418,2.9757582 c -0.038882,-0.00268 -0.077848,-0.00449 -0.1168345,-0.00505 z"
         style="fill:#05b0d9;fill-opacity:1;stroke-width:0.0249967"
         id="path1-8" /><path
         d="m 5.0856585,5.7052087 c 0.058337,0.3478359 0.1500778,0.4384565 0.2706608,0.5104529 0.1843881,0.1101013 0.3455685,0.2447655 0.5784894,0.3795983 0.232921,0.1348613 0.4486952,0.2760036 0.6396708,0.3999631 0.2284679,0.1319062 0.5161936,0.2936218 0.5477856,0.5887947 0,0.1018612 -0.033565,0.513414 -0.566495,0.6302175 C 6.7196969,8.3347196 6.7355754,8.3773445 6.8573578,8.506804 6.9253449,8.475624 6.9940419,8.444386 7.0618557,8.41165 7.2363836,8.327417 7.4009142,8.2335223 7.5100523,8.1306375 7.6192132,8.0277693 7.6737563,7.9314137 7.6737563,7.7918791 c 0,-0.2485945 -0.089941,-0.4360937 -0.239623,-0.607349 C 7.2844552,7.0132443 7.0718799,6.8667652 6.8501324,6.7409318 5.1124908,5.7545667 5.3018328,5.8136082 5.0856585,5.7052118 Z"
         style="fill:#03708a;fill-opacity:1;stroke-width:0.0249967"
         id="path1-9-3" /><path
         d="m 5.2966957,5.7123889 c 0.058337,0.3478359 0.1500777,0.4384565 0.2706606,0.5104529 0.1843881,0.1101013 0.3455686,0.2447656 0.5784894,0.3795984 0.232921,0.1348613 0.4486952,0.2760036 0.6396708,0.399963 C 7.0139843,7.1343094 7.30171,7.296025 7.333302,7.591198 c 0,0.1018611 -0.033565,0.5134139 -0.566495,0.6302174 0.1639268,0.1204844 0.1798055,0.1631094 0.3015878,0.2925688 0.067987,-0.03118 0.136684,-0.062418 0.2044979,-0.095154 C 7.4474206,8.3345977 7.6119512,8.240703 7.7210893,8.1378183 7.8302502,8.03495 7.8847933,7.9385945 7.8847933,7.7990599 c 0,-0.2485946 -0.089941,-0.4360937 -0.2396231,-0.607349 C 7.4954923,7.0204245 7.2829169,6.8739455 7.0611695,6.7481121 5.3235277,5.7617469 5.5128698,5.8207884 5.2966957,5.7123921 Z"
         style="fill:#05b0d9;fill-opacity:1;stroke-width:0.0249967"
         id="path1-9" /><path
         d="m 5.6048074,9.1693247 c 0.014709,0.1061044 0.064094,0.2029735 0.145584,0.3036333 0.4224354,0.3026289 1.1483014,0.4777292 1.258968,1.063271 0,0.24747 -0.3053171,0.51443 -0.4840163,0.741053 -0.1786798,0.226595 -0.4087009,0.463341 -0.6376693,0.681738 -0.051167,0.04882 -0.099643,0.09167 -0.1501076,0.138237 0.2057239,-0.107734 0.4191977,-0.238294 0.6203241,-0.384577 0.5598529,-0.407221 0.991572,-0.94128 0.991572,-1.310286 0,-0.111666 -0.041743,-0.201049 -0.1245349,-0.298886 C 7.1421373,10.005645 7.0182053,9.9092332 6.8851733,9.8165466 6.7521375,9.723813 6.6115324,9.6357187 6.4911717,9.5323802 6.4772385,9.5204212 6.4632882,9.5078713 6.4495351,9.4950475 6.1248984,9.4087258 5.8522834,9.2935727 5.6048136,9.1693391 Z"
         style="fill:#03708a;fill-opacity:1;stroke-width:0.0249967"
         id="path1-7-9" /><path
         d="m 5.7872373,9.1646251 c 0.014709,0.1061044 0.064094,0.2029736 0.145584,0.3036333 0.4224354,0.3026287 1.1483014,0.4777289 1.258968,1.0632706 0,0.247469 -0.3053171,0.51443 -0.4840163,0.741053 -0.1786798,0.226595 -0.408701,0.463341 -0.6376694,0.681738 -0.051167,0.04882 -0.099643,0.09167 -0.1501077,0.138237 0.2057241,-0.107734 0.4191979,-0.238294 0.6203243,-0.384577 0.5598529,-0.40722 0.9915719,-0.94128 0.9915719,-1.310285 0,-0.111667 -0.041743,-0.20105 -0.1245349,-0.298887 C 6.9698756,9.6276629 6.3644111,9.4111514 5.7872435,9.1646394 Z"
         style="fill:#05b0d9;fill-opacity:1;stroke-width:0.0249967"
         id="path1-7"
         sodipodi:nodetypes="cccscccsccc" /><path
         d="m 5.7197732,2.9698632 c -0.038988,3.838e-4 -0.077945,0.00236 -0.1168347,0.00505 -0.32151,0.023532 -0.6179963,0.1435097 -0.7817517,0.2211259 -0.3726302,0.1766247 -0.4597409,0.2620567 -0.5364051,0.4169618 -0.07667,0.1549317 -0.099556,0.3833931 -0.099556,0.5829179 0,0.2332971 -0.044101,0.4081552 0.152044,0.5729816 C 4.5334457,4.93373 4.816135,5.0723877 5.1071712,5.1875988 5.559747,5.4251819 7.078867,5.9830644 7.1187004,6.2253728 7.2366097,6.101413 7.2332541,6.0532912 7.2332541,5.9484518 c 0,-0.062486 -0.016669,-0.1315344 -0.047318,-0.2045214 L 5.5543495,4.9345984 C 4.9324248,4.7158965 4.7827391,4.4895867 4.7524466,4.2415677 4.6951912,3.5907129 5.2301984,3.4665347 5.7577304,3.2731403 5.9596782,3.1212155 5.7915734,3.1105266 6.0326318,3.0151689 5.9324749,2.9712707 5.8187316,2.9689017 5.7197721,2.9699307 Z"
         style="fill:#05d893;fill-opacity:1;stroke-width:0.0249967"
         id="path1-81" /><path
         d="M 5.6085054,6.763565 C 5.4058545,6.8825236 5.2144075,7.0190321 5.0764988,7.176837 4.9268165,7.3480653 4.836879,7.5355913 4.836879,7.784187 c 0,0.1395557 0.054544,0.2358924 0.1637052,0.3387582 0.2039608,0.1922808 1.4371452,0.8027 1.9961191,0.9689777 C 7.0975353,9.057588 7.1178894,8.9636146 7.095092,8.8487264 5.9981153,8.5507744 5.3216384,7.9884768 5.3745919,7.6066465 5.3981009,7.4372578 5.7344676,7.203342 5.9141079,7.086746 5.9501699,7.0634729 6.0031483,7.0380558 6.0399532,7.0159726 5.8767208,6.9202324 5.7567836,6.8782516 5.6085035,6.7635413 Z"
         style="fill:#089a6f;fill-opacity:1;stroke-width:0.0249967"
         id="path1-75-9" /><path
         d="M 5.3565666,6.7775407 C 5.1539158,6.8964993 4.9624687,7.0330078 4.8245602,7.1908126 4.6748777,7.3620409 4.5849404,7.5495669 4.5849404,7.7981627 c 0,0.1395556 0.054544,0.2358923 0.163705,0.3387581 0.2039608,0.1922808 1.4371452,0.8027 1.9961191,0.9689777 C 6.8455967,9.0715637 6.8659506,8.9775903 6.8431532,8.862702 5.7461765,8.56475 5.0696997,8.0024524 5.1226531,7.6206222 5.1461621,7.4512334 5.4825288,7.2173176 5.6621692,7.1007216 5.6982313,7.0774486 5.7512095,7.0520315 5.7880144,7.0299482 5.6247821,6.934208 5.5048448,6.8922273 5.3565647,6.777517 Z"
         style="fill:#05d893;fill-opacity:1;stroke-width:0.0249967"
         id="path1-75" /><path
         d="M 5.7418348,9.6666003 C 5.6774918,9.7112533 5.611852,9.7547663 5.54791,9.799332 c -0.1330083,0.092695 -0.2569679,0.1891 -0.3397573,0.286963 -0.082769,0.09783 -0.1245349,0.18723 -0.1245349,0.298888 0,0.182828 0.099084,0.408502 0.2828633,0.640169 0.1596293,0.201226 0.378327,0.403652 0.6205956,0.586951 0.042678,-0.04107 0.084977,-0.08253 0.1268877,-0.12439 C 6.0440684,11.412222 5.9775785,11.336614 5.9172118,11.262122 5.7336116,11.035578 5.5835531,10.835553 5.5835531,10.58516 c 0,-0.204146 0.1331856,-0.335782 0.2650917,-0.448867 0.062122,-0.05323 0.130236,-0.104509 0.2004272,-0.1555584 C 5.9511333,9.899297 5.8561453,9.8096069 5.7734298,9.7074168 5.762635,9.6941611 5.7521938,9.6804589 5.7418161,9.6666119 Z"
         style="fill:#089a6f;fill-opacity:1;stroke-width:0.0249967"
         id="path1-5-9" /><path
         d="m 5.5912811,9.6769709 c -0.064343,0.044653 -0.1299827,0.088165 -0.1939247,0.1327319 -0.1330085,0.092686 -0.256968,0.189099 -0.3397576,0.2869612 -0.082769,0.09783 -0.1245346,0.187229 -0.1245346,0.298886 0,0.182828 0.099085,0.408504 0.2828632,0.64017 0.1596294,0.201227 0.3783271,0.403652 0.6205957,0.586951 0.042678,-0.04106 0.084978,-0.08253 0.1268875,-0.124389 -0.069896,-0.07569 -0.1363857,-0.1513 -0.1967526,-0.225792 -0.1836002,-0.226544 -0.3336587,-0.426569 -0.3336587,-0.676962 0,-0.204147 0.1331857,-0.335782 0.2650917,-0.448868 C 5.7602129,10.09342 5.828327,10.042154 5.8985182,9.9911055 5.8005796,9.9096678 5.7055915,9.8199778 5.622876,9.7177877 5.6120813,9.7045329 5.60164,9.6908297 5.5912624,9.6769827 Z"
         style="fill:#05d893;fill-opacity:1;stroke-width:0.0249967"
         id="path1-5" /></g><g
       id="g12"
       transform="matrix(0.0260191,0,0,0.0260191,-0.33355595,-0.88923496)">&#10;	&#10;	&#10;	&#10;	<path
   class="st0"
   d="m 204.117,236.545 c 9.6,-2.497 19.588,-5.038 29.196,-7.49 -19.217,-4.741 -33.053,-7.453 -40.254,-18.541 -2.579,-3.975 -2.408,-8.374 -1.397,-11.295 2.08,-5.93 8.085,-8.509 25.4,-14.305 10.284,-3.433 15.575,-9.103 14.512,-15.576 -0.758,-4.614 -1.092,-7.498 -8.672,-8.635 -4.363,-0.638 -9.23,-2.37 -14.305,-4.867 -5.967,-2.92 -11.852,-1.992 -18.287,-1.992 -0.929,0 -1.902,0.082 -2.876,0.216 -13.331,2.074 -23.192,9.474 -28.565,17.515 -11.213,16.846 -15.286,43.806 10.24,64.419 4.274,3.47 9.356,6.302 14.982,8.761 5.714,-3.513 12.357,-6.263 20.026,-8.21 z"
   id="path3"
   style="fill:#05d893;fill-opacity:1" />&#10;	<path
   class="st0"
   d="m 263.194,453.828 c 8.969,11.043 12.097,21.58 9.05,28.818 -0.505,1.568 1.873,2.92 2.676,1.189 0.416,-0.253 1.1,-1.316 3.716,-7.327 5.974,-13.539 4.874,-25.005 0.298,-34.621 -6.392,3.983 -11.594,8.048 -15.74,11.941 z"
   id="path4"
   style="fill:#05d893;fill-opacity:1" />&#10;	<path
   class="st0"
   d="m 325.912,257.159 c -10.79,4.102 -22.724,7.067 -34.451,9.981 -3.552,0.891 -7.059,1.783 -10.582,2.667 -1.01,0.26 -2.066,0.55 -3.091,0.81 3.641,0.966 7.156,1.902 10.499,2.794 12.7,3.381 23.282,11.168 16.936,30.341 -3.136,9.482 -12.023,14.096 -30.14,19.848 -3.002,0.936 -6.257,1.947 -9.772,3.002 -3.01,0.847 -6.175,1.784 -9.571,2.794 0,0 0,0 -0.038,0 -2.838,0.81 -5.796,1.657 -8.888,2.541 -1.992,0.594 -4.064,1.182 -6.183,1.82 -8.545,2.534 -15.657,6.094 -21.416,10.411 -3.344,2.452 -6.257,5.209 -8.717,8.166 -7.824,9.356 -11.51,20.651 -11.763,32.377 -0.386,15.702 9.05,32.296 24.463,39.57 1.947,0.937 3.849,1.91 5.707,2.883 4.191,-5.506 9.735,-11.006 16.891,-16.467 -0.171,-0.082 -0.335,-0.208 -0.513,-0.29 l -2.579,-1.486 c -8.077,-4.786 -15.866,-11.771 -17.307,-19.09 -1.308,-6.555 -1.947,-15.999 15.323,-25.095 1.946,-1.018 4.146,-2.073 6.599,-3.047 1.65,-0.721 3.47,-1.441 5.38,-2.118 1.011,-0.379 1.984,-0.721 3.002,-1.056 3.092,-1.144 6.138,-2.244 9.096,-3.344 9.943,-3.723 19.09,-7.319 27.384,-11.005 3.894,-1.739 7.572,-3.471 11.05,-5.247 24.077,-12.105 38.3,-25.398 38.3,-43.977 0,-17.177 -5.209,-29.534 -15.619,-37.783 z"
   id="path5"
   style="fill:#05d893;fill-opacity:1" />&#10;	<path
   class="st0"
   d="m 263.104,453.955 c 0,-0.044 0.044,-0.089 0.089,-0.126 0,-0.044 -0.045,-0.089 -0.089,-0.126 z"
   id="path6" />&#10;	<path
   class="st0"
   d="m 270.684,364.738 c 17.27,9.14 16.586,18.54 15.322,25.095 -1.441,7.32 -9.23,14.305 -17.314,19.09 l -2.623,1.486 c -0.17,0.082 -0.334,0.208 -0.513,0.29 -0.542,0.342 -1.137,0.676 -1.731,1.055 -2.534,1.486 -5.328,3.226 -8.122,5.209 -2.452,1.65 -4.912,3.515 -7.327,5.544 -3.596,3.002 -7.022,6.346 -10.024,10.121 -2.288,2.876 -4.28,5.96 -5.84,9.259 -4.615,9.571 -5.714,21.082 0.216,34.621 2.66,6.012 3.337,7.074 3.76,7.327 0.803,1.731 3.173,0.379 2.66,-1.189 -3.039,-7.238 0.052,-17.775 9.022,-28.78 0.253,0.216 0.505,0.424 0.758,0.684 l -0.045,-1.568 c 1.992,-2.37 4.28,-4.786 6.822,-7.156 2.326,-2.2 4.868,-4.355 7.662,-6.472 2.957,-2.281 6.175,-4.525 9.645,-6.725 2.965,-1.865 6.101,-3.686 9.445,-5.462 1.858,-0.973 3.76,-1.946 5.752,-2.883 15.367,-7.274 24.834,-23.868 24.462,-39.57 -0.297,-11.726 -3.938,-23.021 -11.77,-32.377 -9.232,4.279 -19.383,8.344 -30.217,12.401 z"
   id="path7"
   style="fill:#05b0d9;fill-opacity:1" />&#10;	<path
   class="st0"
   d="m 323.964,154.061 c -0.966,-0.134 -1.946,-0.216 -2.912,-0.216 -6.436,0 -12.32,-0.929 -18.25,1.992 -5.076,2.497 -9.943,4.228 -14.298,4.867 -7.58,1.138 -7.958,4.021 -8.68,8.635 -1.055,6.472 4.236,12.142 14.52,15.576 17.308,5.796 23.319,8.375 25.385,14.305 1.025,2.92 1.189,7.32 -1.397,11.295 -7.23,11.088 -21.074,13.8 -40.284,18.541 -0.676,0.17 -1.397,0.334 -2.073,0.505 -2.749,0.676 -5.759,1.441 -9.022,2.289 -3.507,0.884 -7.267,1.812 -11.25,2.83 l -10.537,2.668 c -12.276,3.128 -25.608,6.562 -38.307,9.817 -3.039,0.802 -5.922,1.694 -8.628,2.794 0,0 0,0 -0.045,0 -4.83,1.91 -9.103,4.317 -12.7,7.2 -10.411,8.249 -15.613,20.606 -15.613,37.787 0,18.578 14.216,31.872 38.3,44.014 7.491,-6.68 16.973,-11.927 28.142,-15.36 -18.11,-5.752 -26.997,-10.366 -30.178,-19.848 -6.345,-19.173 4.236,-26.96 16.929,-30.341 3.344,-0.892 6.903,-1.829 10.544,-2.794 3.894,-0.981 7.914,-2.036 12.061,-3.092 3.299,-0.847 6.643,-1.694 10.031,-2.586 3.552,-0.884 7.104,-1.821 10.708,-2.749 3.887,-0.966 7.78,-1.985 11.674,-3.003 11.726,-3.047 23.913,-5.759 35.045,-9.229 h 0.045 c 4.948,-1.56 9.734,-3.255 14.134,-5.202 5.632,-2.459 10.708,-5.291 14.981,-8.761 25.526,-20.614 21.46,-47.574 10.24,-64.419 -5.365,-8.04 -15.271,-15.441 -28.565,-17.515 z"
   id="path8"
   style="fill:#05b0d9;fill-opacity:1" />&#10;	&#10;	&#10;	&#10;	&#10;</g><path
       d="m 7.5943597,0.08447028 c 0.054715,0.0015 0.1178586,0.01444 0.1948498,0.041069 C 8.9233926,0.51818878 10.649972,1.5514576 12.179955,2.0142722 11.908537,2.1824282 11.612799,2.3308079 11.306538,2.4484684 10.964185,2.2913392 10.6298,2.1350824 10.346311,1.9783292 9.9991798,1.7864026 8.6569182,1.009127 8.6334661,0.83494748 L 9.3500219,1.6933616 c 0.2769222,0.2346993 0.4339356,0.4310735 0.8027641,0.6349733 0.183401,0.1014108 0.381853,0.2002228 0.586624,0.2975612 -0.187848,0.045216 -0.376548,0.077237 -0.563253,0.092665 -0.08444,0.00698 -0.168278,0.010746 -0.25139,0.011411 C 9.528691,2.4843472 9.1344277,2.1010346 8.9590818,1.8964253 L 8.0210969,0.98069398 C 8.1076929,1.1441715 8.8966722,2.4470789 9.053002,2.5937843 8.6622997,2.4563507 8.4486447,2.0130746 8.1549308,1.6214461 L 7.8337823,1.5751671 7.6819003,1.8355346 C 7.5643163,2.0371055 7.4058615,2.2057612 7.226084,2.3509185 7.0927975,2.3305185 6.9752649,2.3165835 6.854754,2.3096995 V 1.5348982 C 7.0972229,1.351997 7.2547064,1.0617101 7.2547064,0.73647448 c 5.65e-5,-0.131349 -0.026007,-0.2613996 -0.076691,-0.3825742 0.063462,-0.088816 0.1289828,-0.1586817 0.1948004,-0.2017761 0.054286,-0.035569 0.108107,-0.059615 0.1735021,-0.066068 0.015973,-0.0015 0.031989,-0.00193 0.048037,-0.0015 z"
       style="fill:#089a6f;fill-opacity:1;stroke-width:0.0249967"
       id="path1-3-8-1" /><path
       d="m 7.8028001,0.04645218 c 0.054715,0.0015 0.1178586,0.01444 0.1948498,0.041069 C 9.1318329,0.48017038 10.858412,1.5134392 12.388395,1.9762537 12.116978,2.1444097 11.82124,2.2927894 11.514978,2.4104501 11.172625,2.2533207 10.838241,2.0970639 10.554751,1.9403108 10.20762,1.7483842 8.8653587,0.97110868 8.8419064,0.79692908 L 9.5584622,1.6553431 c 0.2769223,0.2346994 0.4339356,0.4310737 0.8027648,0.6349734 0.183401,0.1014108 0.381852,0.2002226 0.586623,0.2975612 -0.187847,0.045216 -0.376548,0.077237 -0.563253,0.092665 -0.08444,0.00698 -0.168278,0.010746 -0.25139,0.011411 C 9.7371312,2.4463289 9.3428679,2.0630162 9.167522,1.8584067 L 8.2295374,0.94267588 C 8.3161334,1.1061534 9.1051124,2.4090608 9.2614423,2.5557662 8.87074,2.4183326 8.6570851,1.9750564 8.3633712,1.583428 L 8.0422226,1.537149 7.8903406,1.7975166 C 7.7727565,1.9990876 7.6143018,2.1677432 7.4345241,2.3129006 7.3012377,2.2925006 7.183705,2.2785646 7.0631944,2.2716816 V 1.4968801 C 7.3056633,1.3139788 7.4631468,1.023692 7.4631468,0.69845628 c 5.64e-5,-0.131349 -0.026007,-0.2613996 -0.076691,-0.3825741 0.063462,-0.088815 0.1289827,-0.1586817 0.1948003,-0.2017762 0.054286,-0.035569 0.1081072,-0.059614 0.1735022,-0.066068 0.015973,-0.0015 0.031989,-0.00193 0.048037,-0.0015 z"
       style="fill:#05d893;fill-opacity:1;stroke-width:0.0249967"
       id="path1-3-9" /></g><style
     type="text/css"
     id="style1">&#10;	.st0{fill:#000000;}&#10;</style></svg>
